<?xml version="1.0"?>
<svg xmlns="http://www.w3.org/2000/svg" id="Layer_1" enable-background="new 0 0 512 512" height="50px" viewBox="0 0 512 512" width="50px"><g><g><g><path d="m431.5 128c26.191 0 47.5-21.309 47.5-47.5s-21.309-47.5-47.5-47.5-47.5 21.309-47.5 47.5 21.309 47.5 47.5 47.5zm0-80c17.92 0 32.5 14.58 32.5 32.5s-14.58 32.5-32.5 32.5-32.5-14.58-32.5-32.5 14.58-32.5 32.5-32.5z" data-original="#000000" class="active-path" data-old_color="#000000" fill="#F64B3C"/><path d="m431.5 22.449c4.142 0 7.5-3.358 7.5-7.5v-7.449c0-4.142-3.358-7.5-7.5-7.5s-7.5 3.358-7.5 7.5v7.449c0 4.142 3.358 7.5 7.5 7.5z" data-original="#000000" class="active-path" data-old_color="#000000" fill="#F64B3C"/><path d="m424 146.051v7.449c0 4.142 3.358 7.5 7.5 7.5s7.5-3.358 7.5-7.5v-7.449c0-4.142-3.358-7.5-7.5-7.5s-7.5 3.358-7.5 7.5z" data-original="#000000" class="active-path" data-old_color="#000000" fill="#F64B3C"/><path d="m392.229 27.481c1.389 2.406 3.91 3.751 6.502 3.751 1.272 0 2.563-.325 3.743-1.006 3.587-2.071 4.816-6.658 2.745-10.245l-3.725-6.451c-2.071-3.588-6.659-4.814-10.245-2.745-3.587 2.071-4.816 6.658-2.745 10.245z" data-original="#000000" class="active-path" data-old_color="#000000" fill="#F64B3C"/><path d="m460.525 130.774c-3.587 2.071-4.816 6.658-2.745 10.245l3.725 6.451c1.389 2.406 3.91 3.751 6.502 3.751 1.272 0 2.563-.325 3.743-1.006 3.587-2.071 4.816-6.658 2.745-10.245l-3.725-6.451c-2.07-3.588-6.659-4.815-10.245-2.745z" data-original="#000000" class="active-path" data-old_color="#000000" fill="#F64B3C"/><path d="m364.53 50.495 6.451 3.725c1.181.682 2.471 1.006 3.743 1.006 2.592 0 5.113-1.345 6.502-3.751 2.071-3.587.842-8.174-2.745-10.245l-6.451-3.725c-3.588-2.072-8.174-.843-10.245 2.745-2.071 3.587-.842 8.174 2.745 10.245z" data-original="#000000" class="active-path" data-old_color="#000000" fill="#F64B3C"/><path d="m484.519 119.771 6.451 3.725c1.181.682 2.471 1.006 3.743 1.006 2.592 0 5.113-1.345 6.502-3.751 2.071-3.587.842-8.174-2.745-10.245l-6.451-3.725c-3.587-2.073-8.174-.843-10.245 2.745-2.071 3.586-.842 8.173 2.745 10.245z" data-original="#000000" class="active-path" data-old_color="#000000" fill="#F64B3C"/><path d="m358.5 88h7.449c4.142 0 7.5-3.358 7.5-7.5s-3.358-7.5-7.5-7.5h-7.449c-4.142 0-7.5 3.358-7.5 7.5s3.358 7.5 7.5 7.5z" data-original="#000000" class="active-path" data-old_color="#000000" fill="#F64B3C"/><path d="m489.551 80.5c0 4.142 3.358 7.5 7.5 7.5h7.449c4.142 0 7.5-3.358 7.5-7.5s-3.358-7.5-7.5-7.5h-7.449c-4.142 0-7.5 3.358-7.5 7.5z" data-original="#000000" class="active-path" data-old_color="#000000" fill="#F64B3C"/><path d="m370.981 106.78-6.451 3.725c-3.587 2.071-4.816 6.658-2.745 10.245 1.389 2.406 3.91 3.751 6.502 3.751 1.272 0 2.563-.325 3.743-1.006l6.451-3.725c3.587-2.071 4.816-6.658 2.745-10.245s-6.659-4.815-10.245-2.745z" data-original="#000000" class="active-path" data-old_color="#000000" fill="#F64B3C"/><path d="m488.276 55.226c1.272 0 2.563-.325 3.743-1.006l6.451-3.725c3.587-2.071 4.816-6.658 2.745-10.245-2.072-3.588-6.66-4.815-10.245-2.745l-6.451 3.725c-3.587 2.071-4.816 6.658-2.745 10.245 1.389 2.406 3.91 3.751 6.502 3.751z" data-original="#000000" class="active-path" data-old_color="#000000" fill="#F64B3C"/><path d="m392.229 133.519-3.725 6.451c-2.071 3.587-.842 8.174 2.745 10.245 1.181.682 2.471 1.006 3.743 1.006 2.592 0 5.113-1.345 6.502-3.751l3.725-6.451c2.071-3.587.842-8.174-2.745-10.245-3.588-2.073-8.174-.843-10.245 2.745z" data-original="#000000" class="active-path" data-old_color="#000000" fill="#F64B3C"/><path d="m460.525 30.226c1.181.682 2.471 1.006 3.743 1.006 2.592 0 5.113-1.345 6.502-3.751l3.725-6.451c2.071-3.587.842-8.174-2.745-10.245-3.587-2.072-8.174-.843-10.245 2.745l-3.725 6.451c-2.071 3.587-.842 8.174 2.745 10.245z" data-original="#000000" class="active-path" data-old_color="#000000" fill="#F64B3C"/><path d="m494.5 465.777v-17.905c0-4.142-3.358-7.5-7.5-7.5s-7.5 3.358-7.5 7.5v17.128h-79v-105h79v55.872c0 4.142 3.358 7.5 7.5 7.5s7.5-3.358 7.5-7.5v-59.372c0-6.341-5.159-11.5-11.5-11.5h-35.947v-157.744c0-4.142-3.358-7.5-7.5-7.5h-250.495v-42.318l107.706 32.16h.001c1.474.44 2.961.649 4.425.649 6.675 0 12.855-4.352 14.861-11.067l4.192-14.039 22.518 6.724c.716.214 1.438.315 2.149.315 3.229 0 6.212-2.103 7.184-5.356 1.185-3.969-1.072-8.147-5.041-9.333l-297.042-88.692c-3.971-1.186-8.148 1.072-9.333 5.041s1.072 8.147 5.041 9.333l22.517 6.724-4.192 14.039c-1.185 3.967-.753 8.158 1.214 11.801 1.968 3.643 5.236 6.301 9.203 7.486l99.595 29.738v74.039h-110.287c-4.142 0-7.5 3.358-7.5 7.5s3.358 7.5 7.5 7.5h292.231v139h-341v-139h17.077c4.142 0 7.5-3.358 7.5-7.5s-3.358-7.5-7.5-7.5h-24.577c-4.142 0-7.5 3.358-7.5 7.5v154c0 4.142 3.358 7.5 7.5 7.5h21.5v89h-5.5c-12.958 0-23.5 10.542-23.5 23.5s10.542 23.5 23.5 23.5h465c12.958 0 23.5-10.542 23.5-23.5 0-10.885-7.439-20.065-17.5-22.723zm-416.043-377.171c-.098-.182-.054-.332-.039-.38l4.148-13.894 223.26 66.664-4.148 13.894c-.079.264-.355.415-.623.336l-117.205-34.997c-.096-.031-.192-.06-.29-.087l-104.806-31.294c-.049-.015-.198-.059-.297-.242zm110.601 118.394v-12.244h242.995v150.244h-35.053c-6.341 0-11.5 5.159-11.5 11.5v108.5h-14.5v-250.5c0-4.142-3.358-7.5-7.5-7.5zm166.942 169v89h-15v-58.5c0-4.142-3.358-7.5-7.5-7.5h-100c-4.142 0-7.5 3.358-7.5 7.5v58.5h-105v-16.615c0-4.142-3.358-7.5-7.5-7.5s-7.5 3.358-7.5 7.5v16.615h-32v-89h32v40.18c0 4.142 3.358 7.5 7.5 7.5s7.5-3.358 7.5-7.5v-40.18zm-30 89h-85v-51h85zm-282-89h15v89h-15zm444.5 121h-465c-4.687 0-8.5-3.813-8.5-8.5s3.813-8.5 8.5-8.5h465c4.687 0 8.5 3.813 8.5 8.5s-3.813 8.5-8.5 8.5z" data-original="#000000" class="active-path" data-old_color="#000000" fill="#F64B3C"/><path d="m30 244.5v94c0 4.142 3.358 7.5 7.5 7.5h296c4.142 0 7.5-3.358 7.5-7.5v-94c0-4.142-3.358-7.5-7.5-7.5h-296c-4.142 0-7.5 3.358-7.5 7.5zm103 86.5v-79h105v79zm193 0h-73v-79h73zm-281-79h73v79h-73z" data-original="#000000" class="active-path" data-old_color="#000000" fill="#F64B3C"/><path d="m453.872 376.004c-2.929-2.929-7.678-2.929-10.606 0l-16.958 16.958c-2.929 2.929-2.929 7.678 0 10.606l10.603 10.603-11.677 11.677c-2.929 2.929-2.929 7.677 0 10.606 1.464 1.465 3.384 2.197 5.303 2.197s3.839-.732 5.303-2.197l16.98-16.98c1.407-1.406 2.197-3.314 2.197-5.303s-.79-3.897-2.197-5.303l-10.603-10.603 11.655-11.655c2.929-2.928 2.929-7.677 0-10.606z" data-original="#000000" class="active-path" data-old_color="#000000" fill="#F64B3C"/></g></g></g> </svg>
