<?xml version="1.0"?>
<svg xmlns="http://www.w3.org/2000/svg" viewBox="0 0 512 512" width="50px" height="50px"><g><path d="m123.765625 256c0 72.84375 59.261719 132.101562 132.105469 132.101562 72.839844 0 132.101562-59.257812 132.101562-132.101562s-59.261718-132.101562-132.101562-132.101562c-72.84375 0-132.105469 59.257812-132.105469 132.101562zm132.105469-117.101562c64.566406 0 117.101562 52.53125 117.101562 117.101562s-52.53125 117.101562-117.101562 117.101562c-64.574219 0-117.105469-52.53125-117.105469-117.101562s52.53125-117.101562 117.105469-117.101562zm0 0" data-original="#000000" class="active-path" data-old_color="#000000" fill="#F64B3C"/><path d="m263.5 60.542969v-53.042969c0-4.140625-3.355469-7.5-7.5-7.5s-7.5 3.359375-7.5 7.5v53.042969c0 4.144531 3.355469 7.503906 7.5 7.503906s7.5-3.359375 7.5-7.503906zm0 0" data-original="#000000" class="active-path" data-old_color="#000000" fill="#F64B3C"/><path d="m248.5 451.457031v53.042969c0 4.140625 3.355469 7.5 7.5 7.5s7.5-3.359375 7.5-7.5v-53.042969c0-4.144531-3.355469-7.503906-7.5-7.503906s-7.5 3.359375-7.5 7.503906zm0 0" data-original="#000000" class="active-path" data-old_color="#000000" fill="#F64B3C"/><path d="m174.273438 78.292969c1.585937 3.828125 5.972656 5.644531 9.800781 4.058593 3.824219-1.585937 5.644531-5.972656 4.058593-9.800781l-10.148437-24.5c-1.585937-3.828125-5.976563-5.644531-9.800781-4.058593-3.828125 1.582031-5.644532 5.972656-4.058594 9.796874zm0 0" data-original="#000000" class="active-path" data-old_color="#000000" fill="#F64B3C"/><path d="m327.925781 429.648438c-3.824219 1.585937-5.644531 5.972656-4.058593 9.800781l10.148437 24.5c1.582031 3.824219 5.96875 5.648437 9.800781 4.0625 3.828125-1.585938 5.644532-5.972657 4.058594-9.800781l-10.148438-24.503907c-1.585937-3.828125-5.972656-5.644531-9.800781-4.058593zm0 0" data-original="#000000" class="active-path" data-old_color="#000000" fill="#F64B3C"/><path d="m43.988281 168.183594c-1.585937 3.828125.230469 8.214844 4.0625 9.800781l24.5 10.148437c3.828125 1.585938 8.214844-.234374 9.800781-4.058593 1.585938-3.828125-.230468-8.214844-4.058593-9.800781l-24.503907-10.148438c-3.824218-1.585938-8.214843.230469-9.800781 4.058594zm0 0" data-original="#000000" class="active-path" data-old_color="#000000" fill="#F64B3C"/><path d="m463.949219 334.019531-24.5-10.148437c-3.828125-1.589844-8.214844.230468-9.800781 4.058594-1.585938 3.828124.230468 8.214843 4.058593 9.796874l24.503907 10.152344c3.816406 1.582032 8.210937-.226562 9.796874-4.0625 1.585938-3.828125-.230468-8.214844-4.058593-9.796875zm0 0" data-original="#000000" class="active-path" data-old_color="#000000" fill="#F64B3C"/><path d="m43.988281 343.816406c1.585938 3.824219 5.96875 5.648438 9.800781 4.0625l24.503907-10.152344c3.828125-1.582031 5.644531-5.96875 4.058593-9.796874-1.585937-3.828126-5.972656-5.644532-9.800781-4.058594l-24.5 10.148437c-3.828125 1.582031-5.648437 5.96875-4.0625 9.796875zm0 0" data-original="#000000" class="active-path" data-old_color="#000000" fill="#F64B3C"/><path d="m468.007812 168.183594c-1.585937-3.828125-5.972656-5.644532-9.800781-4.058594l-24.5 10.148438c-3.828125 1.585937-5.644531 5.972656-4.058593 9.800781 1.582031 3.824219 5.972656 5.644531 9.796874 4.058593l24.503907-10.148437c3.828125-1.585937 5.644531-5.976563 4.058593-9.800781zm0 0" data-original="#000000" class="active-path" data-old_color="#000000" fill="#F64B3C"/><path d="m174.273438 433.707031-10.148438 24.503907c-1.585938 3.824218.230469 8.214843 4.058594 9.796874 3.808594 1.582032 8.207031-.214843 9.800781-4.058593l10.148437-24.503907c1.585938-3.824218-.230468-8.214843-4.058593-9.796874-3.828125-1.589844-8.214844.230468-9.800781 4.058593zm0 0" data-original="#000000" class="active-path" data-old_color="#000000" fill="#F64B3C"/><path d="m343.816406 43.992188c-3.828125-1.585938-8.214844.230468-9.800781 4.058593l-10.148437 24.5c-2.046876 4.945313 1.601562 10.375 6.929687 10.375 2.941406 0 5.734375-1.746093 6.929687-4.632812l10.148438-24.503907c1.585938-3.824218-.230469-8.214843-4.058594-9.796874zm0 0" data-original="#000000" class="active-path" data-old_color="#000000" fill="#F64B3C"/><path d="m123.097656 123.09375c2.929688-2.925781 2.929688-7.675781 0-10.605469l-37.507812-37.507812c-2.933594-2.929688-7.679688-2.929688-10.609375 0-2.929688 2.929687-2.929688 7.679687 0 10.605469l37.507812 37.507812c2.929688 2.929688 7.679688 2.929688 10.609375 0zm0 0" data-original="#000000" class="active-path" data-old_color="#000000" fill="#F64B3C"/><path d="m388.902344 388.90625c-2.929688 2.929688-2.929688 7.675781 0 10.605469l37.507812 37.507812c2.933594 2.929688 7.679688 2.929688 10.609375 0 2.929688-2.929687 2.929688-7.679687 0-10.609375l-37.507812-37.503906c-2.929688-2.929688-7.679688-2.929688-10.609375 0zm0 0" data-original="#000000" class="active-path" data-old_color="#000000" fill="#F64B3C"/><path d="m0 256c0 4.144531 3.355469 7.5 7.5 7.5h53.042969c4.144531 0 7.503906-3.355469 7.503906-7.5s-3.359375-7.5-7.503906-7.5h-53.042969c-4.144531 0-7.5 3.359375-7.5 7.5zm0 0" data-original="#000000" class="active-path" data-old_color="#000000" fill="#F64B3C"/><path d="m504.5 248.5h-53.042969c-4.144531 0-7.503906 3.355469-7.503906 7.5s3.359375 7.5 7.503906 7.5h53.042969c4.144531 0 7.5-3.355469 7.5-7.5s-3.359375-7.5-7.5-7.5zm0 0" data-original="#000000" class="active-path" data-old_color="#000000" fill="#F64B3C"/><path d="m85.589844 437.019531 37.507812-37.507812c2.929688-2.929688 2.929688-7.679688 0-10.605469-2.929687-2.929688-7.679687-2.929688-10.609375 0l-37.507812 37.503906c-2.929688 2.933594-2.929688 7.679688 0 10.609375 2.929687 2.929688 7.675781 2.929688 10.609375 0zm0 0" data-original="#000000" class="active-path" data-old_color="#000000" fill="#F64B3C"/><path d="m399.511719 123.09375 37.507812-37.503906c2.929688-2.929688 2.929688-7.679688 0-10.609375-2.929687-2.925781-7.675781-2.929688-10.609375 0l-37.507812 37.507812c-2.929688 2.929688-2.929688 7.679688 0 10.605469 2.929687 2.929688 7.679687 2.929688 10.609375 0zm0 0" data-original="#000000" class="active-path" data-old_color="#000000" fill="#F64B3C"/><path d="m215.546875 277.570312h26.699219l-19.078125 48.917969c-1.835938 4.707031.03125 9.921875 4.4375 12.390625 4.398437 2.46875 9.824219 1.359375 12.890625-2.671875l62.8125-82.523437c5.023437-6.601563.3125-16.109375-7.980469-16.109375h-16.804687l26.496093-49.074219c3.605469-6.683594-1.226562-14.796875-8.828125-14.796875h-41.359375c-3.871093 0-7.4375 2.265625-9.082031 5.773437l-39.285156 83.804688c-3.121094 6.65625 1.742187 14.289062 9.082031 14.289062zm42.445313-88.867187h29.871093l-26.496093 49.078125c-3.609376 6.683594 1.230468 14.796875 8.824218 14.796875h15.105469l-35.28125 46.355469 8.847656-22.6875c2.566407-6.570313-2.289062-13.675782-9.34375-13.675782h-26.152343zm0 0" data-original="#000000" class="active-path" data-old_color="#000000" fill="#F64B3C"/><path d="m274.175781 89.390625c-4.128906-.449219-7.820312 2.535156-8.265625 6.652344-.441406 4.117187 2.535156 7.816406 6.65625 8.261719 70.183594 7.574218 126.964844 63.972656 135.011719 134.105468.4375 3.824219 3.683594 6.648438 7.441406 6.648438.285157 0 .574219-.019532.863281-.050782 4.113282-.472656 7.066407-4.191406 6.597657-8.308593-8.871094-77.335938-70.59375-138.921875-148.304688-147.308594zm0 0" data-original="#000000" class="active-path" data-old_color="#000000" fill="#F64B3C"/><path d="m416.011719 265.097656c-4.140625-.425781-7.808594 2.574219-8.230469 6.695313-8.011719 77.988281-73.265625 136.800781-151.78125 136.800781-84.140625 0-152.59375-68.453125-152.59375-152.59375 0-77.980469 58.371094-143.183594 135.777344-151.664062 4.117187-.453126 7.089844-4.15625 6.640625-8.273438-.453125-4.117188-4.148438-7.089844-8.273438-6.640625-84.476562 9.257813-149.144531 80.871094-149.144531 166.578125 0 92.410156 75.183594 167.59375 167.59375 167.59375 86.226562 0 157.980469-65.375 166.707031-150.269531.421875-4.121094-2.578125-7.804688-6.695312-8.226563zm0 0" data-original="#000000" class="active-path" data-old_color="#000000" fill="#F64B3C"/></g> </svg>
