<?xml version="1.0"?>
<svg xmlns="http://www.w3.org/2000/svg" height="50px" viewBox="0 0 64 64" width="50px"><g><path d="m11 22a1 1 0 0 0 -1 1v6a1 1 0 0 0 1 1h6a1 1 0 0 0 1-1v-4.75l4.6-3.45-1.2-1.6-3.92 2.94a.971.971 0 0 0 -.48-.14zm3.6 4.8 1.4-1.05v2.25h-4v-4h3l-1.6 1.2z" data-original="#000000" class="active-path" data-old_color="#000000" fill="#FFFFFF"/><path d="m17.48 34.14a.971.971 0 0 0 -.48-.14h-6a1 1 0 0 0 -1 1v6a1 1 0 0 0 1 1h6a1 1 0 0 0 1-1v-4.75l4.6-3.45-1.2-1.6zm-1.48 5.86h-4v-4h3l-1.6 1.2 1.2 1.6 1.4-1.05z" data-original="#000000" class="active-path" data-old_color="#000000" fill="#FFFFFF"/><path d="m21.4 43.2-3.92 2.94a.971.971 0 0 0 -.48-.14h-6a1 1 0 0 0 -1 1v6a1 1 0 0 0 1 1h6a1 1 0 0 0 1-1v-4.75l4.6-3.45zm-5.4 8.8h-4v-4h3l-1.6 1.2 1.2 1.6 1.4-1.05z" data-original="#000000" class="active-path" data-old_color="#000000" fill="#FFFFFF"/><path d="m26 20h14v2h-14z" data-original="#000000" class="active-path" data-old_color="#000000" fill="#FFFFFF"/><path d="m26 26h14v2h-14z" data-original="#000000" class="active-path" data-old_color="#000000" fill="#FFFFFF"/><path d="m26 32h10v2h-10z" data-original="#000000" class="active-path" data-old_color="#000000" fill="#FFFFFF"/><path d="m26 38h4v2h-4z" data-original="#000000" class="active-path" data-old_color="#000000" fill="#FFFFFF"/><path d="m62.092 17.737-2.829-2.829a1 1 0 0 0 -1.414 0l-9.849 9.849v-13.757a3 3 0 0 0 -3-3h-9v-1a1 1 0 0 0 -1-1h-4v-3a1 1 0 0 0 -1-1h-10a1 1 0 0 0 -1 1v3h-4a1 1 0 0 0 -1 1v1h-9a3 3 0 0 0 -3 3v48a3 3 0 0 0 3 3h40a3 3 0 0 0 3-3v-25.757l14.092-14.092a1 1 0 0 0 0-1.414zm-28.992 27.577-1.414-1.414 23.335-23.335 1.414 1.414zm-2.63.2 1.017 1.017-2.543 1.526zm14.53-35.514a1 1 0 0 1 1 1v15.757l-2 2v-15.757a1 1 0 0 0 -1-1h-7v-2zm-24-6h8v2h-8zm-5 4h18v6h-18zm19 8a1 1 0 0 0 1-1v-1h6v16.757l-12.435 12.435a1 1 0 0 0 -.15.193l-4.243 7.071a.993.993 0 0 0 .828 1.509v.035h14v-2h-10.409l4.024-2.415a1 1 0 0 0 .193-.15l8.192-8.192v16.757h-34v-42h6v1a1 1 0 0 0 1 1zm11 43a1 1 0 0 1 -1 1h-40a1 1 0 0 1 -1-1v-48a1 1 0 0 1 1-1h9v2h-7a1 1 0 0 0 -1 1v44a1 1 0 0 0 1 1h36a1 1 0 0 0 1-1v-19.757l2-2zm11.849-38.435-1.414-1.414 2.121-2.122 1.415 1.415z" data-original="#000000" class="active-path" data-old_color="#000000" fill="#FFFFFF"/></g> </svg>
