<?xml version="1.0"?>
<svg xmlns="http://www.w3.org/2000/svg" height="50px" viewBox="-1 0 480 480" width="50px"><g><path d="m318.761719 123.609375c-1.976563-6.855469-8.242188-11.585937-15.375-11.609375h-227.9375c-7.132813.023438-13.398438 4.746094-15.375 11.601562l-59.457031 208c-1.382813 4.832032-.414063 10.03125 2.617187 14.042969 3.027344 4.007813 7.765625 6.363281 12.789063 6.355469h133.394531v16h-16c-4.417969 0-8 3.582031-8 8v8h-16v16h16v8c0 4.417969 3.582031 8 8 8h16v16h-16c-4.417969 0-8 3.582031-8 8v32c0 4.417969 3.582031 8 8 8h112c4.417969 0 8-3.582031 8-8v-32c0-4.417969-3.582031-8-8-8h-16v-16h16c4.417969 0 8-3.582031 8-8v-8h16v-16h-16v-8c0-4.417969-3.582031-8-8-8h-16v-16h133.390625c5.027344.007812 9.761718-2.347656 12.792968-6.355469 3.027344-4.011719 3.996094-9.210937 2.617188-14.042969zm12.046875 100.390625h-54.457032l-5.710937-40h48.746094zm-70.617188 0h-62.773437v-40h57.0625zm-62.773437-56v-40h49.0625l5.710937 40zm-16 0h-54.777344l5.710937-40h49.066407zm0 16v40h-62.777344l5.710937-40zm-78.9375 40h-54.457031l11.425781-40h48.742187zm-2.289063 16-5.710937 40h-62.457031l11.425781-40zm16.160156 0h65.066407v40h-70.777344zm65.066407 56v40h-78.777344l5.710937-40zm16 0h73.0625l5.710937 40h-78.773437zm0-16v-40h65.0625l5.710937 40zm81.222656-40h56.746094l11.421875 40h-62.457032zm36.167969-72h-46.457032l-5.710937-40h40.746094zm-239.359375-40h40.742187l-5.710937 40h-46.457031zm-48 168h64.742187l-5.710937 40h-70.457031zm113.96875 104v-16h8v16zm96 64h-96v-16h96zm0-80v16h-8v-16zm-24 48h-48v-80h48zm78.933593-96-5.710937-40h64.746094l11.421875 40zm0 0" data-original="#000000" class="active-path" data-old_color="#000000" fill="#FFFFFF"/><path d="m397.417969 32c-26.511719 0-48 21.492188-48 48s21.488281 48 48 48c26.507812 0 48-21.492188 48-48-.027344-26.5-21.503907-47.972656-48-48zm0 80c-17.675781 0-32-14.328125-32-32s14.324219-32 32-32c17.671875 0 32 14.328125 32 32s-14.328125 32-32 32zm0 0" data-original="#000000" class="active-path" data-old_color="#000000" fill="#FFFFFF"/><path d="m389.417969 0h16v16h-16zm0 0" data-original="#000000" class="active-path" data-old_color="#000000" fill="#FFFFFF"/><path d="m335.1875 29.085938 11.316406-11.3125 11.3125 11.3125-11.3125 11.3125zm0 0" data-original="#000000" class="active-path" data-old_color="#000000" fill="#FFFFFF"/><path d="m317.417969 72h16v16h-16zm0 0" data-original="#000000" class="active-path" data-old_color="#000000" fill="#FFFFFF"/><path d="m335.191406 130.910156 11.3125-11.3125 11.3125 11.3125-11.3125 11.3125zm0 0" data-original="#000000" class="active-path" data-old_color="#000000" fill="#FFFFFF"/><path d="m389.417969 144h16v16h-16zm0 0" data-original="#000000" class="active-path" data-old_color="#000000" fill="#FFFFFF"/><path d="m437.015625 130.910156 11.3125-11.3125 11.3125 11.3125-11.3125 11.3125zm0 0" data-original="#000000" class="active-path" data-old_color="#000000" fill="#FFFFFF"/><path d="m461.417969 72h16v16h-16zm0 0" data-original="#000000" class="active-path" data-old_color="#000000" fill="#FFFFFF"/><path d="m437.015625 29.085938 11.3125-11.3125 11.3125 11.3125-11.3125 11.3125zm0 0" data-original="#000000" class="active-path" data-old_color="#000000" fill="#FFFFFF"/></g> </svg>
